<svg width="150" height="150" viewBox="0 0 150 150" fill="none" xmlns="http://www.w3.org/2000/svg">
<g opacity="0.03" clip-path="url(#clip0_5_773)">
<path d="M95.57 124.607C123.124 113.422 136.354 82.1132 125.121 54.6772C113.888 27.2413 82.4445 14.0675 54.8906 25.2527C27.3368 36.4379 14.1064 67.7466 25.3397 95.1826C36.573 122.619 68.0161 135.792 95.57 124.607Z" fill="#323B7E"/>
<path d="M75.25 125.08C103.069 125.08 125.621 102.625 125.621 74.9246C125.621 47.2244 103.069 24.769 75.25 24.769C47.4308 24.769 24.8789 47.2244 24.8789 74.9246C24.8789 102.625 47.4308 125.08 75.25 125.08Z" fill="#E3DCD6"/>
<path d="M82.117 81.7868V91.4664L75.2494 84.6281L68.3575 91.4905V81.7868H58.6605L65.5282 74.9485L58.6364 68.0862H68.3817V58.4307L75.2494 65.269L82.1412 58.4066V68.1103H91.8382L84.9705 74.9485L91.8624 81.8109H82.117V81.7868ZM123.976 74.9244L112.103 63.102C111.208 62.2111 110.168 61.5128 109.08 60.983C109.491 59.8513 109.733 58.6233 109.733 57.3472V40.6126H92.9264C91.6447 40.6126 90.4115 40.8534 89.2507 41.2627C88.7429 40.1551 88.0416 39.1197 87.1227 38.2288L75.2494 26.4062L63.376 38.2288C62.4813 39.1197 61.78 40.1551 61.248 41.2386C60.1115 40.8293 58.8782 40.5885 57.6207 40.5885H40.8142V57.3231C40.8142 58.5992 41.0561 59.8273 41.4672 60.983C40.3548 61.4887 39.315 62.187 38.4202 63.102L26.5469 74.9244L38.4202 86.747C39.315 87.6379 40.3548 88.3362 41.443 88.8659C41.0319 89.9976 40.7901 91.2256 40.7901 92.4777V109.212H57.5965C58.8782 109.212 60.1115 108.971 61.2722 108.562C61.78 109.67 62.4813 110.705 63.4002 111.596L75.2736 123.419L87.1469 111.596C88.0416 110.705 88.7429 109.67 89.2749 108.586C90.4115 108.996 91.6447 109.236 92.9022 109.236H109.709V92.5018C109.709 91.2256 109.467 89.9976 109.056 88.8418C110.168 88.3362 111.208 87.638 112.103 86.723L123.976 74.9004V74.9244Z" fill="#5189C9"/>
<path d="M99.1463 78.8516C101.297 65.7001 92.3338 53.3024 79.1258 51.1605C65.9178 49.0186 53.4668 57.9437 51.3157 71.0953C49.1647 84.2468 58.1281 96.6445 71.3361 98.7864C84.5441 100.928 96.9952 92.0032 99.1463 78.8516Z" fill="#323B7E"/>
<path d="M82.1174 81.7871V91.4426L75.2497 84.6043L68.3579 91.4667V81.7631H58.6609L65.5286 74.9247L58.6367 68.0624L68.3821 68.0864V58.4069L75.2497 65.2452L82.1174 58.3828V68.0864H91.8386L84.9709 74.9247L91.8627 81.7871H82.1174Z" fill="white"/>
<path d="M79.2634 44.345C77.0386 46.5602 73.4597 46.5602 71.235 44.345C69.0102 42.1297 69.0102 38.5661 71.235 36.3509C73.4597 34.1356 77.0386 34.1356 79.2634 36.3509C81.4881 38.5661 81.4881 42.1297 79.2634 44.345Z" fill="white"/>
<path d="M77.3284 42.4426C76.1677 43.5984 74.3057 43.5984 73.145 42.4426C71.9842 41.2868 71.9842 39.4328 73.145 38.277C74.3057 37.1212 76.1677 37.1212 77.3284 38.277C78.4892 39.4328 78.4892 41.2868 77.3284 42.4426Z" fill="#323B7E"/>
<path d="M77.3284 77.0676C76.1677 78.2234 74.3057 78.2234 73.145 77.0676C71.9842 75.9118 71.9842 74.0578 73.145 72.902C74.3057 71.7462 76.1677 71.7462 77.3284 72.902C78.4892 74.0578 78.4892 75.9118 77.3284 77.0676Z" fill="#323B7E"/>
<path d="M79.2634 113.498C77.0386 115.713 73.4597 115.713 71.235 113.498C69.0102 111.283 69.0102 107.719 71.235 105.504C73.4597 103.289 77.0386 103.289 79.2634 105.504C81.4881 107.719 81.4881 111.283 79.2634 113.498Z" fill="white"/>
<path d="M77.3284 111.572C76.1677 112.728 74.3057 112.728 73.145 111.572C71.9842 110.416 71.9842 108.562 73.145 107.406C74.3057 106.251 76.1677 106.251 77.3284 107.406C78.4892 108.562 78.4892 110.416 77.3284 111.572Z" fill="#323B7E"/>
<path d="M105.937 78.9215C103.712 76.7063 103.712 73.1428 105.937 70.9275C108.162 68.7123 111.741 68.7123 113.966 70.9275C116.19 73.1428 116.19 76.7063 113.966 78.9215C111.741 81.1368 108.162 81.1368 105.937 78.9215Z" fill="white"/>
<path d="M107.872 77.0193C106.711 75.8635 106.711 74.0094 107.872 72.8536C109.032 71.6979 110.894 71.6979 112.055 72.8536C113.216 74.0094 113.216 75.8635 112.055 77.0193C110.894 78.175 109.032 78.175 107.872 77.0193Z" fill="#323B7E"/>
<path d="M36.5104 78.9215C34.2856 76.7063 34.2856 73.1428 36.5104 70.9275C38.7351 68.7123 42.314 68.7123 44.5388 70.9275C46.7635 73.1428 46.7635 76.7063 44.5388 78.9215C42.314 81.1368 38.7351 81.1368 36.5104 78.9215Z" fill="white"/>
<path d="M38.4448 77.0193C37.284 75.8635 37.284 74.0094 38.4448 72.8536C39.6055 71.6979 41.4675 71.6979 42.6283 72.8536C43.789 74.0094 43.789 75.8635 42.6283 77.0193C41.4675 78.175 39.6055 78.175 38.4448 77.0193V77.0193Z" fill="#323B7E"/>
<path d="M93.7722 100.159C93.8205 97.0288 96.3838 94.5487 99.5275 94.5969C102.647 94.645 105.162 97.1974 105.114 100.328C105.065 103.458 102.502 105.938 99.3582 105.89C96.2387 105.842 93.7238 103.289 93.7722 100.159Z" fill="white"/>
<path d="M96.4808 100.183C96.4808 98.5456 97.8592 97.2453 99.4794 97.2694C101.124 97.2694 102.43 98.6419 102.405 100.255C102.405 101.892 101.027 103.193 99.4068 103.169C97.7624 103.169 96.4566 101.796 96.4808 100.183V100.183Z" fill="#323B7E"/>
<path d="M45.3845 50.5814C45.4328 47.4512 47.9961 44.9711 51.1398 45.0192C54.2593 45.0674 56.7742 47.6197 56.7258 50.7499C56.6775 53.8561 54.1142 56.3602 50.9705 56.3121C47.851 56.2639 45.3361 53.7116 45.3845 50.5814V50.5814Z" fill="white"/>
<path d="M48.0931 50.6296C48.0931 48.9923 49.4715 47.6921 51.0917 47.7161C52.736 47.7161 54.0419 49.0886 54.0177 50.7019C54.0177 52.3392 52.6393 53.6395 51.0191 53.6154C49.3747 53.6154 48.0689 52.2429 48.0931 50.6296Z" fill="#323B7E"/>
<path d="M50.5597 93.5373C53.6791 93.5373 56.2182 96.1137 56.1941 99.2198C56.1941 102.35 53.6066 104.854 50.4871 104.83C47.3435 104.83 44.8285 102.254 44.8527 99.1476C44.8527 96.0174 47.4402 93.5132 50.5597 93.5373Z" fill="white"/>
<path d="M50.5355 96.2339C52.1799 96.2339 53.4857 97.5823 53.4857 99.1956C53.4857 100.833 52.1315 102.133 50.5113 102.133C48.8669 102.133 47.5611 100.785 47.5853 99.1715C47.5853 97.5341 48.9395 96.2339 50.5597 96.2339H50.5355Z" fill="#323B7E"/>
<path d="M100.012 45.0192C103.155 45.0192 105.67 47.5956 105.646 50.7017C105.646 53.8319 103.059 56.3361 99.9393 56.312C96.7956 56.312 94.2807 53.7356 94.3049 50.6295C94.3049 47.4993 96.8923 44.9951 100.012 45.0192Z" fill="white"/>
<path d="M99.9878 47.7158C101.632 47.7158 102.938 49.0642 102.914 50.6775C102.914 52.3148 101.56 53.6151 99.9395 53.6151C98.2951 53.6151 96.9893 52.2667 96.9893 50.6534C96.9893 49.0161 98.3434 47.7158 99.9636 47.7158H99.9878Z" fill="#323B7E"/>
<path d="M163.468 -5.17892C161.412 -7.22559 158.196 -7.4423 155.899 -5.78088C157.543 -8.06834 157.35 -11.2708 155.294 -13.3175L149.587 -19L143.88 -13.3175C141.825 -11.2708 141.607 -8.06834 143.276 -5.78088C140.979 -7.41822 137.762 -7.22559 135.707 -5.17892L130 0.503613L135.707 6.18614C137.762 8.23282 140.979 8.44953 143.276 6.78811C141.632 9.07557 141.825 12.278 143.88 14.3247L149.587 20.0072L155.294 14.3247C157.35 12.278 157.567 9.07557 155.899 6.78811C158.196 8.42545 161.412 8.23282 163.468 6.18614L169.175 0.503613L163.468 -5.17892V-5.17892Z" fill="#323B7E"/>
<path d="M157.083 -2.57861C155.971 -3.68623 154.23 -3.80662 152.997 -2.91571C153.891 -4.14372 153.795 -5.87738 152.658 -6.98499L149.587 -10.043L146.516 -6.98499C145.404 -5.87738 145.283 -4.14372 146.177 -2.91571C144.944 -3.80662 143.203 -3.7103 142.091 -2.57861L139.02 0.47933L142.091 3.53731C143.203 4.64492 144.944 4.76531 146.177 3.87441C145.283 5.10241 145.379 6.83607 146.516 7.94368L149.587 11.0016L152.658 7.94368C153.771 6.83607 153.891 5.10241 152.997 3.87441C154.23 4.76531 155.971 4.669 157.083 3.53731L160.155 0.47933L157.083 -2.57861V-2.57861Z" fill="#5189C9" stroke="white" stroke-width="0.26" stroke-miterlimit="10"/>
<path d="M151.207 0.479467C151.207 1.37037 150.482 2.09272 149.587 2.09272C148.692 2.09272 147.967 1.37037 147.967 0.479467C147.967 -0.411438 148.692 -1.13379 149.587 -1.13379C150.482 -1.13379 151.207 -0.411438 151.207 0.479467Z" fill="#323B7E"/>
<path d="M164.468 144.821C162.412 142.774 159.196 142.558 156.899 144.219C158.543 141.932 158.35 138.729 156.294 136.683L150.587 131L144.88 136.683C142.825 138.729 142.607 141.932 144.276 144.219C141.979 142.582 138.762 142.774 136.707 144.821L131 150.504L136.707 156.186C138.762 158.233 141.979 158.45 144.276 156.788C142.632 159.076 142.825 162.278 144.88 164.325L150.587 170.007L156.294 164.325C158.35 162.278 158.567 159.076 156.899 156.788C159.196 158.425 162.412 158.233 164.468 156.186L170.175 150.504L164.468 144.821V144.821Z" fill="#323B7E"/>
<path d="M158.083 147.421C156.971 146.314 155.23 146.193 153.997 147.084C154.891 145.856 154.795 144.123 153.658 143.015L150.587 139.957L147.516 143.015C146.404 144.123 146.283 145.856 147.177 147.084C145.944 146.193 144.203 146.29 143.091 147.421L140.02 150.479L143.091 153.537C144.203 154.645 145.944 154.765 147.177 153.874C146.283 155.102 146.379 156.836 147.516 157.944L150.587 161.002L153.658 157.944C154.771 156.836 154.891 155.102 153.997 153.874C155.23 154.765 156.971 154.669 158.083 153.537L161.155 150.479L158.083 147.421V147.421Z" fill="#5189C9" stroke="white" stroke-width="0.26" stroke-miterlimit="10"/>
<path d="M152.207 150.479C152.207 151.37 151.482 152.093 150.587 152.093C149.692 152.093 148.967 151.37 148.967 150.479C148.967 149.589 149.692 148.866 150.587 148.866C151.482 148.866 152.207 149.589 152.207 150.479Z" fill="#323B7E"/>
<path d="M13.4678 -5.17892C11.4124 -7.22559 8.19618 -7.4423 5.8989 -5.78088C7.54327 -8.06834 7.34981 -11.2708 5.29435 -13.3175L-0.412599 -19L-6.11955 -13.3175C-8.17501 -11.2708 -8.39265 -8.06834 -6.72409 -5.78088C-9.02138 -7.41822 -12.2376 -7.22559 -14.2931 -5.17892L-20 0.503613L-14.2931 6.18614C-12.2376 8.23282 -9.02138 8.44953 -6.72409 6.78811C-8.36847 9.07557 -8.17501 12.278 -6.11955 14.3247L-0.412599 20.0072L5.29435 14.3247C7.34981 12.278 7.56745 9.07557 5.8989 6.78811C8.19618 8.42545 11.4124 8.23282 13.4678 6.18614L19.1748 0.503613L13.4678 -5.17892V-5.17892Z" fill="#323B7E"/>
<path d="M7.08346 -2.57861C5.97109 -3.68623 4.22999 -3.80662 2.99671 -2.91571C3.89144 -4.14372 3.79471 -5.87738 2.65816 -6.98499L-0.412951 -10.043L-3.48406 -6.98499C-4.59643 -5.87738 -4.71734 -4.14372 -3.82261 -2.91571C-5.05589 -3.80662 -6.797 -3.7103 -7.90937 -2.57861L-10.9805 0.47933L-7.90937 3.53731C-6.797 4.64492 -5.05589 4.76531 -3.82261 3.87441C-4.71734 5.10241 -4.62061 6.83607 -3.48406 7.94368L-0.412951 11.0016L2.65816 7.94368C3.77053 6.83607 3.89144 5.10241 2.99671 3.87441C4.22999 4.76531 5.97109 4.669 7.08346 3.53731L10.1546 0.47933L7.08346 -2.57861V-2.57861Z" fill="#5189C9" stroke="white" stroke-width="0.26" stroke-miterlimit="10"/>
<path d="M1.20718 0.479467C1.20718 1.37037 0.481726 2.09272 -0.413006 2.09272C-1.30774 2.09272 -2.0332 1.37037 -2.0332 0.479467C-2.0332 -0.411438 -1.30774 -1.13379 -0.413006 -1.13379C0.481726 -1.13379 1.20718 -0.411438 1.20718 0.479467Z" fill="#323B7E"/>
<path d="M13.4678 144.821C11.4124 142.774 8.19618 142.558 5.8989 144.219C7.54327 141.932 7.34981 138.729 5.29435 136.683L-0.412599 131L-6.11955 136.683C-8.17501 138.729 -8.39265 141.932 -6.72409 144.219C-9.02138 142.582 -12.2376 142.774 -14.2931 144.821L-20 150.504L-14.2931 156.186C-12.2376 158.233 -9.02138 158.45 -6.72409 156.788C-8.36847 159.076 -8.17501 162.278 -6.11955 164.325L-0.412599 170.007L5.29435 164.325C7.34981 162.278 7.56745 159.076 5.8989 156.788C8.19618 158.425 11.4124 158.233 13.4678 156.186L19.1748 150.504L13.4678 144.821V144.821Z" fill="#323B7E"/>
<path d="M7.08346 147.421C5.97109 146.314 4.22999 146.193 2.99671 147.084C3.89144 145.856 3.79471 144.123 2.65816 143.015L-0.412951 139.957L-3.48406 143.015C-4.59643 144.123 -4.71734 145.856 -3.82261 147.084C-5.05589 146.193 -6.797 146.29 -7.90937 147.421L-10.9805 150.479L-7.90937 153.537C-6.797 154.645 -5.05589 154.765 -3.82261 153.874C-4.71734 155.102 -4.62061 156.836 -3.48406 157.944L-0.412951 161.002L2.65816 157.944C3.77053 156.836 3.89144 155.102 2.99671 153.874C4.22999 154.765 5.97109 154.669 7.08346 153.537L10.1546 150.479L7.08346 147.421V147.421Z" fill="#5189C9" stroke="white" stroke-width="0.26" stroke-miterlimit="10"/>
<path d="M1.20718 150.479C1.20718 151.37 0.481726 152.093 -0.413006 152.093C-1.30774 152.093 -2.0332 151.37 -2.0332 150.479C-2.0332 149.589 -1.30774 148.866 -0.413006 148.866C0.481726 148.866 1.20718 149.589 1.20718 150.479Z" fill="#323B7E"/>
</g>
<defs>
<clipPath id="clip0_5_773">
<rect width="150" height="150" fill="white"/>
</clipPath>
</defs>
</svg>
