<?xml version="1.0" standalone="no"?>
<!DOCTYPE svg PUBLIC "-//W3C//DTD SVG 20010904//EN"
 "http://www.w3.org/TR/2001/REC-SVG-20010904/DTD/svg10.dtd">
<svg version="1.0" xmlns="http://www.w3.org/2000/svg"
 width="1024.000000pt" height="1024.000000pt" viewBox="0 0 1024.000000 1024.000000"
 preserveAspectRatio="xMidYMid meet">

<g transform="translate(0.000000,1024.000000) scale(0.100000,-0.100000)"
fill="#000000" stroke="none">
<path d="M3350 5711 c0 -11 4 -22 8 -25 14 -9 35 12 29 28 -9 23 -37 20 -37
-3z m30 -1 c0 -5 -4 -10 -10 -10 -5 0 -10 5 -10 10 0 6 5 10 10 10 6 0 10 -4
10 -10z"/>
<path d="M3422 5703 c4 -21 33 -25 33 -3 0 8 -8 16 -18 18 -14 3 -18 -1 -15
-15z m28 -3 c0 -5 -4 -10 -10 -10 -5 0 -10 5 -10 10 0 6 5 10 10 10 6 0 10 -4
10 -10z"/>
<path d="M5480 5693 c-49 -19 -50 -25 -50 -230 l0 -193 33 -21 c36 -22 79 -19
109 8 16 14 18 33 18 144 0 124 -1 128 -22 132 l-23 4 23 2 c20 1 22 6 22 59
0 44 -5 63 -18 75 -20 19 -69 29 -92 20z m20 -34 c0 -8 5 -8 15 1 12 10 16 9
21 -3 8 -22 1 -68 -11 -65 -5 2 -8 13 -7 26 3 15 -2 22 -13 22 -12 0 -15 -7
-13 -25 2 -13 -1 -24 -6 -25 -11 -1 -20 46 -12 66 6 17 26 19 26 3z m-13 -206
c-3 -10 -5 -4 -5 12 0 17 2 24 5 18 2 -7 2 -21 0 -30z m43 -68 c0 -58 -3 -105
-8 -105 -4 0 -7 17 -6 38 0 20 2 67 2 105 3 107 12 78 12 -38z m-40 25 c0 -5
-2 -10 -4 -10 -3 0 -8 5 -11 10 -3 6 -1 10 4 10 6 0 11 -4 11 -10z m-3 -107
c-2 -16 -4 -3 -4 27 0 30 2 43 4 28 2 -16 2 -40 0 -55z"/>
<path d="M3354 5117 c3 -466 5 -512 20 -511 9 0 57 1 106 2 l90 2 0 40 c0 31
4 40 18 41 14 0 15 1 1 7 -9 4 -15 19 -15 37 0 29 -1 30 -52 33 -44 3 -52 6
-52 23 0 16 7 19 53 19 l52 0 -3 55 c-5 66 12 73 52 23 23 -30 24 -34 11 -65
-8 -18 -12 -33 -9 -33 3 0 11 14 18 31 l13 30 67 -77 c37 -42 82 -96 99 -120
l32 -43 128 -1 c70 0 127 3 127 6 0 4 -12 21 -27 39 -24 28 -83 102 -172 215
-18 23 -20 23 -15 4 6 -23 -12 -42 -26 -28 -5 5 -11 21 -14 36 -3 20 -1 25 10
21 24 -9 16 11 -23 56 -29 35 -34 45 -22 53 11 8 10 9 -4 4 -10 -3 -21 -6 -23
-6 -2 0 -4 -22 -4 -50 0 -38 -4 -50 -15 -50 -13 0 -15 11 -13 58 3 52 5 57 28
60 16 3 47 30 90 79 36 42 98 112 137 157 40 44 73 84 73 89 0 9 -232 9 -245
-1 -6 -4 -42 -41 -80 -82 -131 -144 -177 -190 -186 -190 -5 0 -9 117 -9 275
l0 275 -110 -1 -110 0 4 -512z m118 326 c-3 -16 -7 -22 -10 -15 -4 13 4 42 11
42 2 0 2 -12 -1 -27z m85 21 c-3 -3 -12 -4 -19 -1 -8 3 -5 6 6 6 11 1 17 -2
13 -5z m-7 -63 c0 -16 -38 -23 -57 -11 -15 8 -13 9 8 4 15 -3 30 -1 33 5 9 13
16 14 16 2z m-150 -71 c0 -19 -23 -59 -31 -54 -5 3 -9 18 -9 35 0 22 5 29 20
29 11 0 20 -4 20 -10z m17 -42 c-2 -13 -4 -5 -4 17 -1 22 1 32 4 23 2 -10 2
-28 0 -40z m116 37 c9 -8 13 -24 10 -35 -8 -29 -21 -25 -15 5 5 29 -20 44 -43
25 -9 -8 -15 -8 -15 -2 0 23 43 28 63 7z m457 -7 c0 -11 -7 -18 -20 -18 -13 0
-20 7 -20 19 0 14 6 19 20 18 12 -1 20 -8 20 -19z m-122 -30 c-2 -13 -10 -23
-18 -23 -8 0 -16 10 -18 23 -3 17 2 22 18 22 16 0 21 -5 18 -22z m-383 -8 c3
-5 1 -10 -4 -10 -6 0 -11 5 -11 10 0 6 2 10 4 10 3 0 8 -4 11 -10z m418 -61
c3 -13 1 -19 -6 -16 -15 5 -22 37 -9 37 5 0 12 -9 15 -21z m-58 -9 c0 -22 -29
-18 -33 3 -3 14 1 18 15 15 10 -2 18 -10 18 -18z m-400 -11 c0 -7 -8 -15 -17
-17 -10 -2 -18 2 -18 8 0 6 5 8 12 4 8 -5 9 -2 5 10 -5 12 -3 16 5 14 7 -3 13
-11 13 -19z m95 -174 l0 -45 -40 0 -40 0 0 45 0 45 40 0 40 0 0 -45z m37 -7
c-3 -7 -5 -2 -5 12 0 14 2 19 5 13 2 -7 2 -19 0 -25z m150 -80 c-2 -18 -4 -6
-4 27 0 33 2 48 4 33 2 -15 2 -42 0 -60z m-62 -30 c6 -4 2 -8 -7 -8 -10 0 -18
7 -18 17 0 9 3 12 8 7 4 -5 12 -12 17 -16z m-268 -4 c-3 -3 -12 -4 -19 -1 -8
3 -5 6 6 6 11 1 17 -2 13 -5z m597 -190 c9 -8 16 -22 16 -30 0 -16 -35 -54
-50 -54 -13 0 -50 37 -50 51 0 44 53 65 84 33z"/>
<path d="M3840 5290 c0 -5 5 -10 10 -10 6 0 10 5 10 10 0 6 -4 10 -10 10 -5 0
-10 -4 -10 -10z"/>
<path d="M3930 4705 c-14 -17 -5 -51 15 -59 35 -13 63 21 45 55 -13 23 -43 25
-60 4z"/>
<path d="M7777 5623 c-12 -12 -7 -23 10 -23 15 0 15 -2 2 -12 -11 -10 -14 -29
-11 -75 4 -61 4 -62 35 -66 l32 -4 -32 -1 -33 -2 -1 -162 c-2 -385 2 -633 11
-643 6 -7 7 -15 3 -18 -3 -4 -3 -7 0 -7 11 0 43 35 52 56 7 17 8 17 12 2 3
-10 9 -18 14 -18 5 0 9 -9 9 -20 0 -16 7 -20 30 -20 27 0 29 2 21 19 -6 10 -8
21 -5 24 7 6 -18 47 -29 47 -4 0 -5 -4 -2 -10 3 -6 -1 -7 -9 -4 -13 5 -16 23
-16 87 0 59 3 78 11 70 6 -6 9 -36 7 -72 -2 -52 -1 -60 12 -55 8 4 26 7 40 8
20 1 25 -4 27 -27 1 -15 -2 -25 -8 -22 -5 3 -8 -5 -7 -19 1 -13 6 -22 10 -20
4 3 8 1 8 -5 0 -5 -6 -12 -12 -14 -8 -3 -6 -6 5 -6 14 -1 17 8 17 57 0 32 -5
63 -12 70 -9 9 -9 12 1 12 7 0 10 4 7 9 -4 5 -2 11 4 13 6 2 7 14 1 33 -5 17
-4 41 1 55 6 16 5 26 -1 28 -16 5 -13 22 3 22 8 0 16 10 18 23 2 17 11 23 36
25 22 2 32 8 32 20 0 13 4 12 20 -6 25 -27 27 -82 3 -82 -16 0 -16 -1 1 -13 9
-7 18 -24 20 -37 5 -47 16 -60 37 -47 10 6 19 17 19 24 0 7 9 17 20 23 27 14
25 31 -2 26 -14 -2 -22 -9 -20 -19 1 -8 -2 -18 -8 -22 -6 -4 -10 6 -10 24 0
24 4 31 20 31 11 0 20 5 20 10 0 6 -8 10 -17 8 -13 -2 -19 5 -21 25 -3 26 -1
27 37 27 39 0 41 -2 41 -29 0 -20 -6 -31 -17 -34 -14 -4 -13 -5 4 -6 12 0 25
4 28 9 4 6 11 8 16 5 5 -4 9 -1 9 4 0 6 5 11 11 11 5 0 7 -4 4 -10 -3 -5 1
-10 9 -10 11 0 4 15 -22 50 -20 27 -38 45 -40 40 -2 -6 -21 -10 -42 -10 -40 0
-52 16 -41 55 5 15 16 21 45 23 43 3 78 26 74 51 -2 9 4 16 12 16 8 1 14 7 12
14 -1 7 2 10 7 7 5 -4 31 19 58 49 48 53 52 66 56 147 1 9 6 14 11 11 5 -3 6
-1 2 5 -4 8 -37 12 -85 12 l-77 0 -73 -80 c-43 -47 -69 -85 -65 -91 4 -7 3 -9
-4 -6 -5 4 -38 -23 -71 -60 l-61 -68 -1 75 c0 41 -2 140 -5 220 -2 80 -4 175
-4 213 l0 67 -98 0 c-54 0 -102 -3 -105 -7z m140 -110 c-3 -10 -5 -2 -5 17 0
19 2 27 5 18 2 -10 2 -26 0 -35z m-52 26 c4 -6 4 -13 0 -17 -4 -4 -10 -1 -12
6 -4 10 -8 10 -19 1 -11 -9 -14 -8 -14 5 0 18 35 22 45 5z m5 -89 c0 -5 -4
-10 -10 -10 -5 0 -10 5 -10 10 0 6 5 10 10 10 6 0 10 -4 10 -10z m47 -27 c-3
-10 -5 -4 -5 12 0 17 2 24 5 18 2 -7 2 -21 0 -30z m10 -45 c-3 -8 -6 -5 -6 6
-1 11 2 17 5 13 3 -3 4 -12 1 -19z m30 -30 c-3 -7 -5 -2 -5 12 0 14 2 19 5 13
2 -7 2 -19 0 -25z m-117 -53 c0 -49 -1 -52 -24 -48 -21 4 -23 9 -21 56 1 29 3
53 4 54 0 0 10 -1 21 -4 17 -4 20 -14 20 -58z m117 3 c-3 -8 -6 -5 -6 6 -1 11
2 17 5 13 3 -3 4 -12 1 -19z m423 -3 c15 -18 13 -20 -17 -29 -24 -8 -38 7 -29
29 7 19 30 19 46 0z m-460 -5 c0 -5 -12 -10 -27 -9 l-28 1 25 8 c14 4 26 8 28
9 1 1 2 -3 2 -9z m353 -52 c-6 -32 -23 -38 -23 -8 0 11 -4 20 -10 20 -17 0
-11 18 8 23 24 5 31 -4 25 -35z m50 -2 c7 -18 -1 -26 -25 -26 -18 0 -25 20
-11 33 11 12 31 8 36 -7z m50 4 c8 0 7 -4 -1 -12 -9 -9 -16 -8 -30 6 -16 18
-16 19 1 12 10 -3 24 -6 30 -6z m-133 -21 c0 -11 -21 -16 -47 -11 -36 7 -27
22 12 20 19 -1 35 -5 35 -9z m-330 -50 c0 -5 -9 -9 -20 -9 -19 0 -27 20 -13
33 7 8 33 -11 33 -24z m380 10 c0 -10 -27 -19 -34 -12 -12 12 -5 22 14 20 11
-1 20 -4 20 -8z m-120 -18 c30 -2 43 -18 36 -45 -6 -24 -10 -26 -67 -26 -53 0
-60 2 -49 15 6 8 9 18 6 24 -9 14 21 40 41 36 10 -2 25 -4 33 -4z m-346 -17
c10 -4 16 -18 16 -35 0 -24 -4 -29 -25 -29 -21 0 -25 5 -25 28 0 39 7 46 34
36z m86 -4 c0 -5 -9 -10 -20 -10 -11 0 -20 5 -20 10 0 6 9 10 20 10 11 0 20
-4 20 -10z m66 -97 c-2 -21 -4 -57 -5 -80 l-1 -43 -50 0 -50 0 0 80 0 80 55 0
54 0 -3 -37z m-136 17 c0 -5 -11 -10 -25 -10 -14 0 -25 5 -25 10 0 6 11 10 25
10 14 0 25 -4 25 -10z m265 -19 c-6 -5 -28 -11 -50 -13 -32 -2 -41 -8 -47 -28
-5 -20 -6 -18 -3 10 2 19 4 36 4 38 1 1 24 2 53 2 32 0 48 -4 43 -9z m-267
-18 c2 -8 -6 -13 -22 -13 -17 0 -26 5 -26 16 0 19 41 16 48 -3z m0 -40 c2 -8
-6 -13 -22 -13 -17 0 -26 5 -26 16 0 19 41 16 48 -3z m-3 -38 c0 -5 -10 -11
-22 -13 -16 -2 -23 2 -23 13 0 11 7 15 23 13 12 -2 22 -7 22 -13z m0 -35 c4
-6 -5 -10 -19 -10 -14 0 -26 5 -26 10 0 6 9 10 19 10 11 0 23 -4 26 -10z m3
-42 c-3 -7 -13 -13 -23 -13 -10 0 -20 6 -22 13 -3 7 5 12 22 12 17 0 25 -5 23
-12z m-3 -46 c-12 -12 -35 -10 -35 3 0 8 7 11 20 8 12 -3 18 -8 15 -11z m94
-4 c1 12 6 22 11 22 11 0 14 -59 4 -84 -11 -28 -34 8 -33 51 1 34 2 35 9 13 8
-24 8 -24 9 -2z m-109 -28 c-13 -8 -12 -10 3 -10 9 0 17 -4 17 -8 0 -17 -13
-21 -31 -11 -21 11 -15 39 10 39 14 0 14 -2 1 -10z m16 -59 c-7 -11 -46 -21
-46 -12 0 13 13 21 32 21 11 0 17 -4 14 -9z"/>
<path d="M5269 5530 c-68 -35 -88 -56 -69 -73 10 -10 12 -9 7 6 -4 9 -2 17 3
17 5 0 8 -18 7 -40 -1 -29 -5 -39 -15 -35 -8 3 -16 5 -18 5 -2 0 -4 14 -4 32
l0 32 -41 -39 c-53 -52 -107 -137 -91 -143 18 -6 15 -20 -5 -25 -17 -4 -17 -5
0 -6 15 -1 16 -4 6 -23 -9 -16 -9 -23 0 -26 20 -7 12 -21 -21 -39 -25 -13 -29
-18 -15 -21 20 -4 23 -42 3 -42 -8 0 -17 8 -19 18 -9 32 -6 -43 3 -118 20
-154 126 -303 263 -369 79 -39 147 -55 147 -35 0 24 20 16 21 -8 1 -19 3 -17
9 7 4 17 8 23 9 15 1 -13 2 -13 11 0 8 12 10 8 11 -15 1 -29 1 -29 9 -5 l7 25
12 -25 c11 -25 11 -25 7 5 l-5 30 14 -30 c14 -29 14 -29 15 -5 0 20 2 22 10
10 9 -13 10 -13 11 0 0 10 3 8 9 -5 9 -20 9 -20 9 0 1 27 41 32 41 5 0 -16 4
-17 42 -8 57 12 118 40 174 78 45 32 47 43 9 54 -11 3 -3 4 18 2 33 -2 43 3
69 33 55 62 101 173 106 257 l5 74 -51 0 c-42 0 -50 3 -46 15 4 10 20 15 48
15 30 0 37 -3 26 -10 -13 -8 -12 -10 3 -10 12 0 17 8 17 30 0 22 -5 30 -17 31
-16 0 -16 1 -2 7 15 6 15 11 1 55 -13 42 -18 47 -46 48 -17 1 -34 1 -38 0 -5
0 -8 6 -8 14 0 10 10 15 30 15 17 0 30 2 30 4 0 3 -14 25 -30 50 -54 80 -174
175 -243 191 l-28 7 3 -93 3 -94 38 -3 c20 -2 37 -7 37 -12 0 -4 -10 -5 -22
-2 -19 5 -16 -2 19 -42 71 -81 88 -126 88 -236 0 -88 -2 -99 -32 -151 -18 -31
-30 -60 -27 -63 2 -3 1 -4 -2 -1 -4 2 -24 -11 -45 -29 -35 -33 -79 -61 -79
-53 0 3 7 21 15 40 17 42 19 104 5 143 -12 29 -57 90 -47 61 8 -20 -8 -67 -22
-67 -6 0 -8 7 -5 15 19 48 -34 133 -106 170 l-29 15 1 -44 c0 -29 -6 -54 -19
-73 -11 -15 -24 -38 -27 -51 -11 -35 -29 -14 -23 26 l6 35 -26 -24 c-51 -48
-69 -143 -38 -203 20 -39 20 -40 -16 -19 -49 29 -117 111 -136 165 -15 42 -21
49 -40 45 -12 -2 -24 2 -27 9 -7 17 8 26 28 18 12 -5 16 0 16 20 0 29 -17 35
-27 9 -5 -13 -8 -12 -15 8 -6 15 -5 25 1 27 8 3 7 10 0 24 -10 18 -8 19 18 14
27 -6 29 -4 40 36 16 59 65 130 113 163 l40 28 0 93 c0 52 -3 94 -7 94 -5 -1
-33 -14 -64 -30z m490 -52 c0 -13 -3 -17 -6 -10 -2 6 -14 12 -26 13 -20 1 -20
2 3 9 14 4 26 8 28 9 1 1 2 -9 1 -21z m1 -68 c0 -5 -17 -9 -37 -9 l-38 2 35 7
c19 4 36 8 38 9 1 0 2 -3 2 -9z m-620 -75 c0 -8 -4 -15 -10 -15 -5 0 -10 5
-10 10 0 6 -5 10 -11 10 -8 0 -7 -5 1 -15 7 -9 10 -19 6 -22 -8 -8 -26 16 -26
35 0 6 11 12 25 12 16 0 25 -6 25 -15z m89 11 c-10 -9 -79 -14 -79 -5 0 5 19
9 42 9 23 0 39 -2 37 -4z m758 -111 c0 -19 -4 -35 -9 -35 -4 0 -8 16 -8 35 0
19 4 35 8 35 5 0 9 -16 9 -35z m-60 -27 c-3 -7 -5 -2 -5 12 0 14 2 19 5 13 2
-7 2 -19 0 -25z m-751 0 c5 -7 2 -9 -8 -5 -9 3 -21 0 -27 -6 -7 -7 -11 -7 -11
-1 0 24 33 33 46 12z m804 -34 c0 -2 -13 -4 -30 -4 -16 0 -30 4 -30 8 0 5 14
7 30 4 17 -2 30 -6 30 -8z m-825 -4 c-27 -12 -35 -12 -35 0 0 6 12 10 28 9 24
0 25 -1 7 -9z m805 -160 c0 -5 -8 -10 -19 -10 -11 0 -21 -9 -24 -22 -7 -27 -1
-38 23 -38 20 0 35 26 20 35 -6 4 -10 0 -10 -7 0 -9 -3 -9 -10 2 -7 11 -5 17
8 21 24 9 36 -5 28 -35 -5 -21 -13 -26 -36 -26 -38 0 -52 40 -25 70 19 21 45
27 45 10z m-384 -125 c37 -50 40 -80 9 -111 -24 -24 -32 -26 -81 -22 -65 6
-82 20 -86 72 -3 33 2 46 29 75 18 20 38 48 44 63 l11 28 25 -38 c14 -20 36
-50 49 -67z m-429 40 c14 -10 20 -23 18 -36 -5 -24 -3 -22 -29 -36 -15 -8 -26
-7 -43 4 -26 17 -31 53 -8 53 8 0 15 7 15 15 0 19 20 19 47 0z m737 -64 c4 -5
-3 -7 -14 -4 -23 6 -26 13 -6 13 8 0 17 -4 20 -9z m-74 -21 c0 -5 -2 -10 -4
-10 -3 0 -8 5 -11 10 -3 6 -1 10 4 10 6 0 11 -4 11 -10z m80 -4 c0 -11 -19
-15 -25 -6 -3 5 1 10 9 10 9 0 16 -2 16 -4z m-628 -43 c23 -20 23 -41 0 -71
-24 -31 -58 -24 -82 16 -15 25 -16 32 -6 32 8 0 17 -12 20 -26 5 -20 12 -25
34 -22 22 2 27 8 27 32 0 31 -34 62 -42 39 -3 -7 -9 -13 -14 -13 -4 0 -6 7 -3
15 8 20 43 19 66 -2z m474 -34 c10 -17 -23 -46 -37 -32 -7 7 -9 19 -6 27 7 18
33 21 43 5z m49 -15 c0 -10 -8 -20 -17 -22 -18 -3 -26 27 -11 42 12 11 28 0
28 -20z m30 -53 c-3 -6 -11 -9 -16 -6 -5 4 -9 1 -9 -4 0 -6 -4 -11 -10 -11
-16 0 0 29 18 33 21 4 26 1 17 -12z"/>
<path d="M5105 4905 c-20 -15 -20 -15 0 -30 25 -20 40 -14 40 15 0 29 -15 35
-40 15z"/>
<path d="M1730 5531 c-25 -8 -25 -8 -2 -12 12 -2 23 -7 22 -11 0 -5 0 -19 0
-33 0 -14 -4 -25 -10 -25 -5 0 -10 9 -10 21 0 11 -4 17 -10 14 -6 -4 -8 -16
-4 -27 3 -11 2 -18 -3 -15 -5 3 -15 2 -23 -4 -10 -5 18 -9 80 -10 113 -1 138
-3 147 -13 5 -4 -40 -6 -98 -3 l-107 4 0 -33 0 -34 149 0 149 0 0 -67 c1 -75
10 -226 15 -231 1 -2 14 0 29 4 21 5 26 12 26 35 0 26 -9 34 -33 30 -5 -1 -6
3 -3 8 4 5 0 12 -6 14 -7 3 2 6 20 6 l32 1 0 -54 c0 -60 -5 -67 -50 -68 l-31
-1 2 -209 2 -208 33 0 c21 0 34 -5 34 -12 0 -10 2 -10 9 0 5 8 23 13 42 12 86
-5 99 -1 99 25 0 19 -5 25 -23 25 -16 0 -23 6 -23 20 0 14 7 20 23 20 22 0 23
3 24 103 0 56 1 201 2 322 l2 220 40 2 c22 1 93 2 158 2 l117 1 0 94 0 94 -42
-3 c-43 -3 -43 -3 -46 -44 l-3 -41 -59 0 -59 0 -3 43 -3 42 -77 1 c-43 0 -78
-3 -78 -8 0 -4 7 -8 15 -8 20 0 19 -36 -1 -44 -24 -9 -36 3 -31 30 2 14 -1 24
-7 25 -6 0 -27 2 -46 4 -28 4 -31 2 -17 -6 19 -11 23 -44 6 -54 -5 -4 -21 -4
-35 -1 -28 7 -33 40 -7 54 11 7 -32 10 -127 11 -106 1 -146 -2 -152 -11 -6
-10 -8 -10 -8 0 0 13 -3 13 -40 3z m225 -10 c17 -1 17 -3 5 -11 -22 -14 -71
-11 -100 5 -24 15 -23 15 25 11 28 -3 59 -5 70 -5z m-130 -42 c4 -11 4 -23 1
-26 -3 -4 -6 1 -6 10 0 10 -5 17 -11 17 -6 0 -8 -9 -4 -21 5 -15 4 -19 -4 -15
-12 8 -15 39 -4 49 12 12 22 7 28 -14z m185 -20 c0 -5 -4 -7 -10 -4 -5 3 -18
1 -27 -4 -17 -10 -17 -10 0 -11 11 0 17 -8 17 -25 0 -21 -5 -25 -30 -25 -35 0
-40 21 -14 58 15 22 64 31 64 11z m-97 -6 c-7 -2 -21 -2 -30 0 -10 3 -4 5 12
5 17 0 24 -2 18 -5z m234 -126 c-2 -23 -3 -1 -3 48 0 50 1 68 3 42 2 -26 2
-67 0 -90z m110 127 c-3 -3 -12 -4 -19 -1 -8 3 -5 6 6 6 11 1 17 -2 13 -5z
m-159 -49 l4 -20 -16 20 c-15 20 -15 20 -16 -2 0 -38 -46 -25 -62 17 -5 13 2
15 41 10 36 -4 47 -9 49 -25z m-178 -22 c0 -12 -3 -14 -8 -6 -4 7 -39 13 -82
16 l-75 3 83 2 c72 2 82 0 82 -15z m373 10 c-7 -2 -19 -2 -25 0 -7 3 -2 5 12
5 14 0 19 -2 13 -5z m-233 -40 c-8 -3 -18 -11 -22 -17 -5 -7 -8 -4 -8 7 0 11
7 17 23 16 15 0 17 -2 7 -6z m93 -105 c7 -27 1 -38 -21 -38 -15 0 -15 2 -2 10
12 8 12 10 1 10 -11 0 -11 3 -1 15 9 11 9 15 1 15 -6 0 -16 -10 -21 -22 -5
-14 -9 -17 -9 -7 -1 18 18 39 35 39 6 0 14 -10 17 -22z m-93 -24 c0 -16 -5
-24 -17 -23 -11 0 -13 3 -5 6 6 2 12 12 12 20 0 9 -6 13 -15 9 -8 -3 -15 -1
-15 3 0 11 22 20 33 14 4 -2 7 -15 7 -29z m114 -110 c17 -6 22 -59 7 -68 -4
-3 -6 6 -3 21 3 18 -1 30 -13 40 -20 14 -16 17 9 7z m-104 -265 c0 -5 5 -7 10
-4 6 3 10 0 10 -8 0 -18 -40 -11 -41 7 0 6 -4 2 -9 -9 -8 -19 -9 -19 -9 3 -1
16 5 22 19 22 11 0 20 -5 20 -11z m77 -21 c-3 -7 -5 -2 -5 12 0 14 2 19 5 13
2 -7 2 -19 0 -25z m-20 -185 c-2 -16 -4 -3 -4 27 0 30 2 43 4 28 2 -16 2 -40
0 -55z m90 71 c-3 -3 -12 -4 -19 -1 -8 3 -5 6 6 6 11 1 17 -2 13 -5z m-47 -34
c0 -11 -4 -20 -10 -20 -5 0 -10 9 -10 20 0 11 5 20 10 20 6 0 10 -9 10 -20z
m50 -40 c0 -5 -9 -10 -20 -10 -11 0 -20 5 -20 10 0 6 9 10 20 10 11 0 20 -4
20 -10z"/>
<path d="M2040 5404 c0 -8 5 -12 10 -9 6 4 8 11 5 16 -9 14 -15 11 -15 -7z"/>
<path d="M2055 5510 c-4 -7 -3 -16 3 -22 14 -14 45 -2 40 15 -6 16 -34 21 -43
7z m35 -4 c0 -3 -4 -8 -10 -11 -5 -3 -10 -1 -10 4 0 6 5 11 10 11 6 0 10 -2
10 -4z"/>
<path d="M8100 5469 c0 -5 4 -9 9 -9 5 0 17 -3 27 -7 12 -4 15 -2 12 8 -5 15
-48 22 -48 8z"/>
<path d="M8163 5465 c0 -8 4 -15 9 -15 4 0 8 4 8 9 0 6 -4 12 -8 15 -5 3 -9
-1 -9 -9z"/>
<path d="M8075 5460 c3 -5 2 -10 -3 -10 -6 0 -13 -8 -16 -17 -6 -15 -4 -15 14
2 22 20 26 35 9 35 -5 0 -7 -4 -4 -10z"/>
<path d="M3664 5445 c-4 -9 -12 -14 -20 -11 -8 3 -15 -6 -19 -25 -4 -17 -13
-29 -23 -30 -12 0 -11 -3 5 -9 15 -6 21 -15 17 -25 -3 -8 -1 -15 5 -15 6 0 11
-7 11 -16 0 -8 5 -12 10 -9 6 4 17 2 25 -5 9 -8 15 -8 20 0 4 6 16 8 27 4 13
-4 18 -2 14 4 -3 5 0 12 8 15 21 8 18 76 -4 89 -10 7 -16 18 -13 26 4 9 0 13
-13 11 -10 -2 -25 0 -32 4 -7 5 -15 2 -18 -8z m44 -47 c17 -17 15 -55 -3 -62
-36 -13 -69 31 -45 59 15 18 32 19 48 3z"/>
<path d="M2762 5420 c0 -14 2 -19 5 -12 2 6 2 18 0 25 -3 6 -5 1 -5 -13z"/>
<path d="M5190 5429 c0 -5 5 -7 10 -4 6 3 10 8 10 11 0 2 -4 4 -10 4 -5 0 -10
-5 -10 -11z"/>
<path d="M8155 5430 c3 -5 8 -10 11 -10 2 0 4 5 4 10 0 6 -5 10 -11 10 -5 0
-7 -4 -4 -10z"/>
<path d="M2677 5404 c-14 -15 -6 -34 14 -34 14 0 19 5 17 17 -3 18 -20 27 -31
17z m23 -14 c0 -5 -2 -10 -4 -10 -3 0 -8 5 -11 10 -3 6 -1 10 4 10 6 0 11 -4
11 -10z"/>
<path d="M4451 5394 c0 -11 3 -14 6 -6 3 7 2 16 -1 19 -3 4 -6 -2 -5 -13z"/>
<path d="M4765 5399 c-4 -6 -4 -13 -1 -16 3 -4 6 -1 6 6 0 8 7 10 21 6 15 -5
19 -4 15 4 -9 14 -33 14 -41 0z"/>
<path d="M6352 5394 c-15 -16 -16 -32 -1 -17 6 6 18 9 25 6 8 -3 14 -1 14 5 0
16 -24 20 -38 6z"/>
<path d="M8063 5378 c1 -28 11 -36 22 -18 3 6 2 10 -4 10 -5 0 -12 8 -14 18
-3 9 -4 5 -4 -10z"/>
<path d="M3065 5381 c3 -5 0 -13 -6 -17 -8 -5 -7 -9 2 -15 7 -4 17 -5 21 -3
13 9 9 32 -8 38 -8 3 -12 2 -9 -3z"/>
<path d="M4785 5370 c-16 -7 -17 -9 -3 -9 9 -1 20 4 23 9 7 11 7 11 -20 0z"/>
<path d="M2722 5351 c-99 -37 -169 -96 -210 -178 -34 -66 -36 -83 -13 -83 14
0 21 -6 21 -20 0 -16 -7 -20 -32 -21 l-33 -2 35 -7 c28 -6 30 -8 10 -9 -14 -1
-32 -6 -40 -11 -10 -6 -3 -8 22 -3 36 5 38 5 36 -21 -2 -24 -6 -27 -30 -24
-16 3 -28 1 -28 -4 0 -4 14 -8 32 -8 37 0 33 -9 -5 -12 -15 -1 -27 -6 -27 -11
0 -5 14 -6 30 -2 26 6 30 4 30 -14 0 -14 -6 -21 -20 -21 -17 0 -19 -4 -14 -27
14 -57 58 -129 106 -175 65 -62 137 -89 256 -96 92 -5 92 -5 93 19 1 23 1 23
7 2 l7 -22 59 20 c84 29 176 96 176 130 0 3 -27 27 -61 53 l-60 47 -34 -30
c-77 -68 -228 -70 -298 -4 -25 25 -57 73 -57 87 0 3 123 7 273 8 l272 3 -1 90
c-2 158 -64 264 -195 331 -46 24 -68 28 -154 31 -80 3 -110 0 -153 -16z m128
-32 c0 -11 -4 -18 -10 -14 -5 3 -7 12 -3 20 7 21 13 19 13 -6z m-30 -34 c0
-25 -5 -45 -11 -45 -5 0 -7 5 -3 11 3 6 0 15 -7 20 -10 6 -11 9 -1 9 6 0 12 7
12 15 0 8 -6 15 -12 15 -9 0 -8 4 2 10 8 5 16 10 18 10 1 0 2 -20 2 -45z
m-122 -17 c18 -18 14 -46 -7 -58 -15 -7 -23 -6 -35 6 -16 15 -14 24 7 52 12
15 20 15 35 0z m152 -18 c0 -5 -5 -10 -11 -10 -5 0 -7 5 -4 10 3 6 8 10 11 10
2 0 4 -4 4 -10z m-243 -52 c-3 -8 -6 -5 -6 6 -1 11 2 17 5 13 3 -3 4 -12 1
-19z m531 10 c17 -17 15 -67 -3 -74 -24 -10 -65 5 -65 23 0 15 1 15 13 -1 7
-10 22 -17 33 -14 28 5 30 43 2 62 -15 11 -18 16 -7 16 8 0 20 -5 27 -12z
m-209 -14 c45 -18 91 -77 91 -117 l0 -27 -170 0 c-194 0 -193 -1 -141 81 47
74 131 99 220 63z m154 1 c-3 -9 -8 -14 -10 -11 -3 3 -2 9 2 15 9 16 15 13 8
-4z m-413 -51 c0 -8 -5 -12 -10 -9 -6 4 -8 11 -5 16 9 14 15 11 15 -7z m-98
-111 c-6 -65 -12 -67 -12 -5 0 29 4 52 8 52 5 0 7 -21 4 -47z m536 -53 c11
-18 10 -20 -18 -20 -18 0 -30 5 -30 13 0 32 30 36 48 7z m49 -12 c-3 -7 -5 -2
-5 12 0 14 2 19 5 13 2 -7 2 -19 0 -25z m-139 5 c-2 -13 -13 -18 -38 -18 -25
0 -36 5 -38 18 -3 14 4 17 38 17 34 0 41 -3 38 -17z m-401 -135 c-3 -8 -6 -5
-6 6 -1 11 2 17 5 13 3 -3 4 -12 1 -19z m63 -40 c0 -5 -8 -8 -17 -8 -15 0 -16
2 -3 10 11 7 11 10 2 10 -7 0 -10 5 -6 11 6 11 23 -6 24 -23z m-85 -18 c3 -5
1 -10 -4 -10 -6 0 -11 5 -11 10 0 6 2 10 4 10 3 0 8 -4 11 -10z m133 -42 c-2
-13 -10 -23 -18 -23 -8 0 -16 10 -18 23 -3 17 2 22 18 22 16 0 21 -5 18 -22z
m102 -13 c0 -16 -6 -25 -15 -25 -9 0 -15 9 -15 25 0 16 6 25 15 25 9 0 15 -9
15 -25z m17 -12 c-3 -10 -5 -4 -5 12 0 17 2 24 5 18 2 -7 2 -21 0 -30z m-47
-83 c0 -5 -4 -10 -10 -10 -5 0 -10 5 -10 10 0 6 5 10 10 10 6 0 10 -4 10 -10z
m30 6 c0 -3 -4 -8 -10 -11 -5 -3 -10 -1 -10 4 0 6 5 11 10 11 6 0 10 -2 10 -4z
m150 -6 c0 -5 -4 -10 -10 -10 -5 0 -10 5 -10 10 0 6 5 10 10 10 6 0 10 -4 10
-10z"/>
<path d="M2657 5247 c-7 -19 14 -34 33 -22 13 8 13 35 -1 35 -5 0 -7 -4 -4
-10 3 -5 2 -10 -4 -10 -5 0 -11 5 -13 12 -3 7 -7 5 -11 -5z"/>
<path d="M2825 5150 c-3 -6 1 -7 9 -4 18 7 21 14 7 14 -6 0 -13 -4 -16 -10z"/>
<path d="M2906 5141 c-4 -5 -2 -12 3 -15 5 -4 12 -2 15 3 4 5 2 12 -3 15 -5 4
-12 2 -15 -3z"/>
<path d="M3070 4980 c0 -5 5 -10 10 -10 6 0 10 5 10 10 0 6 -4 10 -10 10 -5 0
-10 -4 -10 -10z"/>
<path d="M2958 4973 c7 -3 16 -2 19 1 4 3 -2 6 -13 5 -11 0 -14 -3 -6 -6z"/>
<path d="M2811 4724 c0 -11 3 -14 6 -6 3 7 2 16 -1 19 -3 4 -6 -2 -5 -13z"/>
<path d="M4500 5354 c-54 -19 -106 -64 -88 -76 9 -5 4 -8 -12 -8 -24 0 -25 3
-22 40 l4 40 -106 0 -106 0 0 -369 0 -370 33 -3 c17 -2 65 -2 105 0 l72 4 0
83 c0 57 -4 85 -12 88 -10 4 -10 6 0 6 6 1 12 7 12 14 0 9 -10 12 -30 9 -22
-3 -30 0 -30 11 0 9 -5 19 -12 23 -8 5 -9 0 -6 -14 4 -12 2 -22 -3 -22 -5 0
-9 18 -9 40 l0 40 46 0 46 0 -2 83 c-2 45 1 97 5 115 8 36 53 79 91 88 42 11
123 -2 145 -22 44 -39 49 -70 49 -313 l0 -230 28 -3 c15 -2 62 -2 105 0 l78 4
-3 71 -3 72 -42 3 -42 3 -4 -46 -4 -45 1 47 1 48 48 3 c39 3 47 6 47 23 0 11
-7 19 -17 20 -15 0 -15 2 2 9 17 7 17 9 3 9 -10 1 -18 6 -18 11 0 6 8 10 18
11 14 0 14 2 -3 9 -19 8 -19 9 -1 9 18 1 18 9 14 149 -5 156 -15 195 -64 259
-29 39 -106 81 -157 86 -30 3 -37 1 -40 -17 -4 -20 -4 -20 -6 2 -1 18 -7 22
-33 22 -18 -1 -53 -8 -78 -16z m-213 -71 c-3 -10 -5 -4 -5 12 0 17 2 24 5 18
2 -7 2 -21 0 -30z m190 0 c-3 -10 -5 -4 -5 12 0 17 2 24 5 18 2 -7 2 -21 0
-30z m-190 -55 c-3 -7 -5 -2 -5 12 0 14 2 19 5 13 2 -7 2 -19 0 -25z m171 5
c-21 -2 -55 -2 -75 0 -21 2 -4 4 37 4 41 0 58 -2 38 -4z m152 -18 c13 -14 21
-25 18 -25 -2 0 -15 11 -28 25 -13 14 -21 25 -18 25 2 0 15 -11 28 -25z m-376
-80 c3 -8 1 -15 -4 -15 -6 0 -10 7 -10 15 0 8 2 15 4 15 2 0 6 -7 10 -15z
m601 -25 c7 -33 1 -50 -21 -50 -10 0 -14 12 -14 40 0 48 25 56 35 10z m-115
-30 c0 -22 -1 -23 -24 -14 -18 7 -10 34 10 34 8 0 14 -9 14 -20z m17 -2 c-3
-8 -6 -5 -6 6 -1 11 2 17 5 13 3 -3 4 -12 1 -19z m83 -70 c0 6 4 12 8 12 5 0
8 -10 7 -22 -2 -31 -29 -29 -33 2 -2 20 -1 22 7 10 7 -10 11 -11 11 -2z m-106
-13 c-4 -8 -1 -15 5 -15 8 0 8 -4 -1 -14 -16 -17 -19 -15 -22 18 -2 16 2 26
10 26 8 0 11 -6 8 -15z m-487 -32 c-10 -3 -14 -9 -10 -16 12 -20 12 -38 0 -34
-12 4 -17 34 -10 50 2 4 12 6 21 6 15 -1 15 -2 -1 -6z m500 -35 c-3 -7 -5 -2
-5 12 0 14 2 19 5 13 2 -7 2 -19 0 -25z m-17 2 c0 -5 -4 -10 -10 -10 -5 0 -10
5 -10 10 0 6 5 10 10 10 6 0 10 -4 10 -10z m15 -50 c4 -6 -5 -10 -19 -10 -14
0 -26 5 -26 10 0 6 9 10 19 10 11 0 23 -4 26 -10z m5 -30 c0 -5 -7 -7 -15 -4
-8 4 -15 8 -15 10 0 2 7 4 15 4 8 0 15 -4 15 -10z m-480 -67 c0 -16 -6 -23
-20 -23 -14 0 -20 7 -20 23 0 16 6 23 20 23 14 0 20 -7 20 -23z m497 -125 c-2
-18 -4 -4 -4 32 0 36 2 50 4 33 2 -18 2 -48 0 -65z m-502 57 c0 -10 -6 -20
-12 -22 -7 -3 -13 0 -13 7 0 6 5 8 10 5 6 -3 10 -1 10 4 0 6 -4 11 -10 11 -5
0 -10 5 -10 11 0 6 6 9 13 7 6 -3 12 -13 12 -23z m482 -21 c-3 -3 -12 -4 -19
-1 -8 3 -5 6 6 6 11 1 17 -2 13 -5z m1 -36 c-5 -15 -23 -11 -26 6 -2 11 2 14
13 10 9 -4 14 -11 13 -16z"/>
<path d="M6441 5361 c-66 -17 -117 -46 -174 -101 -85 -80 -145 -191 -111 -204
8 -3 14 -10 14 -15 0 -6 -7 -8 -15 -5 -13 6 -20 -6 -16 -29 1 -4 2 -25 3 -47
1 -21 5 -37 9 -34 5 3 6 -8 3 -23 -6 -30 20 -103 36 -103 6 0 9 -3 9 -7 -3
-18 2 -31 21 -53 l20 -23 0 36 c0 19 -6 37 -12 40 -7 2 -10 8 -6 12 15 16 28
-8 28 -50 0 -54 19 -75 110 -119 61 -29 72 -31 175 -31 61 0 120 3 131 7 43
13 100 47 143 85 51 45 51 47 -36 127 l-54 50 -37 -37 c-44 -43 -78 -57 -137
-57 -25 0 -45 -5 -48 -12 -4 -8 -6 -7 -6 3 -1 19 -27 32 -43 22 -6 -3 -8 -1
-5 4 4 6 -4 18 -17 26 -61 40 -86 178 -47 262 33 72 86 105 167 105 51 0 74
-10 122 -52 31 -26 34 -27 60 -13 15 8 52 37 82 65 43 39 52 52 41 59 -8 5
-20 7 -28 4 -9 -3 -11 0 -7 10 4 12 0 14 -18 10 -16 -3 -19 -2 -10 5 17 12
-20 40 -88 67 -51 20 -205 29 -259 16z m76 -76 c-4 -8 -12 -15 -19 -14 -10 0
-10 2 0 6 6 2 12 12 12 21 0 8 3 13 6 9 4 -3 4 -13 1 -22z m123 -5 c0 -4 -22
-8 -50 -8 -27 -1 -50 3 -50 8 0 4 23 8 50 8 28 1 50 -3 50 -8z m70 -46 c0 -21
-4 -25 -22 -22 -29 4 -38 44 -11 50 26 6 33 0 33 -28z m-73 -21 c-3 -10 -5 -4
-5 12 0 17 2 24 5 18 2 -7 2 -21 0 -30z m-387 -26 c0 -5 -4 -5 -10 -2 -5 3
-10 14 -10 23 0 15 2 15 10 2 5 -8 10 -19 10 -23z m146 8 c-1 -27 -11 -33 -19
-11 -3 7 0 19 6 25 15 15 15 15 13 -14z m-193 -102 c-7 -2 -21 -2 -30 0 -10 3
-4 5 12 5 17 0 24 -2 18 -5z m-26 -150 c-3 -10 -5 -4 -5 12 0 17 2 24 5 18 2
-7 2 -21 0 -30z m43 -3 c0 -5 -4 -10 -10 -10 -5 0 -10 5 -10 10 0 6 5 10 10
10 6 0 10 -4 10 -10z m99 -58 c0 -15 -3 -21 -6 -14 -7 17 -21 15 -26 -5 -3
-11 -5 -7 -6 10 -1 18 4 27 15 27 9 0 12 5 8 12 -4 7 -3 8 4 4 7 -4 12 -19 11
-34z m88 -77 c0 -8 -4 -15 -7 -15 -4 0 -13 7 -20 15 -10 12 -9 15 7 15 11 0
20 -7 20 -15z m-99 -52 l-1 -58 -6 50 c-6 48 -5 65 5 65 2 0 3 -26 2 -57z
m432 6 c0 -4 -8 -6 -17 -2 -15 5 -15 3 1 -9 22 -17 16 -48 -9 -48 -10 0 -15
10 -15 33 0 19 3 36 6 40 8 8 34 -3 34 -14z m46 12 c-4 -5 0 -12 6 -14 10 -4
9 -8 -2 -16 -10 -7 -11 -11 -2 -11 6 0 12 -4 12 -10 0 -5 -7 -10 -15 -10 -10
0 -15 11 -15 35 0 19 5 35 11 35 5 0 8 -4 5 -9z m-306 -21 c0 -5 -8 -10 -17
-10 -15 0 -16 2 -3 10 19 12 20 12 20 0z m-90 -106 c0 -8 -5 -12 -10 -9 -6 4
-8 11 -5 16 9 14 15 11 15 -7z"/>
<path d="M7180 5364 c-66 -12 -116 -27 -157 -46 -40 -19 -44 -24 -38 -47 3
-14 11 -30 18 -36 7 -5 12 -14 13 -20 0 -14 16 -65 19 -65 1 0 24 10 51 22 69
31 216 33 256 3 34 -26 45 -44 53 -87 l7 -35 -149 -6 c-81 -3 -166 -12 -188
-19 -57 -18 -120 -83 -135 -137 -13 -48 -6 -131 15 -171 33 -65 118 -120 185
-120 36 0 40 2 40 26 0 19 -4 25 -15 20 -8 -3 -15 -1 -15 4 0 6 10 10 23 10
20 0 23 -4 19 -30 -4 -29 -3 -30 35 -30 47 0 139 32 168 60 29 28 35 25 35
-15 l0 -35 95 0 95 0 0 130 c0 85 -4 130 -11 130 -5 0 -8 -4 -4 -9 3 -5 1 -12
-5 -16 -5 -3 -10 1 -10 9 0 8 -8 20 -17 25 -16 9 -15 11 7 12 14 1 28 1 33 0
4 0 7 8 7 20 0 11 -5 17 -10 14 -11 -7 -8 18 5 48 12 28 -1 177 -18 220 -9 20
-26 41 -39 47 -13 5 -17 9 -9 9 26 2 -30 50 -94 82 -51 25 -76 31 -151 34 -49
2 -100 2 -114 -1z m75 -25 c4 -6 1 -10 -6 -8 -25 3 -39 -1 -39 -11 0 -5 7 -7
15 -4 8 4 15 1 15 -5 0 -6 -11 -11 -25 -11 -14 0 -24 3 -24 8 3 20 -2 33 -11
27 -6 -4 -8 -16 -4 -27 4 -14 2 -18 -5 -14 -12 8 -15 39 -4 49 10 11 81 8 88
-4z m-118 -81 c-2 -18 -4 -6 -4 27 0 33 2 48 4 33 2 -15 2 -42 0 -60z m139 57
c-3 -8 -1 -15 4 -15 6 0 10 7 10 15 0 17 18 19 40 5 17 -11 4 -40 -21 -48 -9
-3 -8 2 5 17 17 19 17 21 3 21 -10 0 -17 -4 -17 -10 0 -5 -11 -10 -25 -10 -36
0 -33 31 4 39 2 1 1 -6 -3 -14z m127 -30 c20 -14 37 -28 37 -31 0 -3 -3 -3 -7
-1 -5 3 -15 -2 -23 -11 -13 -14 -12 -15 3 -9 9 3 19 2 22 -2 9 -16 -39 -21
-51 -6 -6 8 -17 15 -24 15 -10 0 -10 3 0 15 8 10 21 13 39 9 l26 -6 -23 17
c-20 15 -24 15 -38 1 -8 -9 -21 -16 -27 -16 -7 1 -2 9 11 19 15 13 18 21 10
24 -7 3 -8 6 -3 6 6 1 27 -10 48 -24z m61 3 c-5 -9 -2 -9 9 1 15 11 17 11 17
-2 0 -8 -7 -20 -15 -27 -9 -7 -13 -21 -10 -31 3 -9 0 -21 -6 -25 -9 -5 -8 -9
5 -14 17 -6 17 -7 2 -23 -19 -19 -46 -23 -46 -7 0 6 8 10 18 11 12 1 10 3 -6
7 -33 10 -32 26 1 30 27 3 35 16 17 27 -5 3 -7 12 -5 20 3 8 7 22 10 30 2 8 7
15 10 15 4 0 3 -6 -1 -12z m-430 -20 c-3 -4 -12 -8 -20 -8 -8 0 -14 4 -14 8 0
4 9 8 19 8 11 0 17 -4 15 -8z m36 -54 c0 -19 -5 -24 -22 -23 -17 1 -18 3 -6 6
10 2 15 10 11 19 -3 7 -9 11 -14 8 -5 -3 -9 -1 -9 5 0 11 21 20 33 14 4 -2 7
-15 7 -29z m410 -74 c0 -5 -12 -10 -27 -9 -25 0 -26 1 -8 9 27 12 35 12 35 0z
m29 -52 c1 -24 -3 -28 -28 -28 -19 0 -30 6 -33 18 -7 25 1 42 20 42 15 0 15
-2 2 -10 -13 -8 -12 -10 3 -10 10 0 15 -5 12 -10 -4 -6 -11 -8 -16 -5 -5 4 -9
1 -9 -4 0 -6 10 -11 21 -11 20 0 21 4 16 43 -4 28 -3 36 3 22 5 -11 9 -32 9
-47z m-339 -103 c0 -8 -4 -15 -10 -15 -5 0 -10 7 -10 15 0 8 5 15 10 15 6 0
10 -7 10 -15z m100 5 c0 -5 -20 -9 -45 -8 -25 0 -45 4 -45 9 0 5 20 9 45 9 25
0 45 -4 45 -10z m107 3 c-20 -2 -52 -2 -70 0 -17 2 0 4 38 4 39 0 53 -2 32 -4z
m-299 -15 c-3 -7 -11 -13 -18 -13 -7 0 -15 6 -17 13 -3 7 4 12 17 12 13 0 20
-5 18 -12z m492 -34 c0 -23 -3 -24 -65 -24 -64 0 -65 0 -65 28 l0 27 65 -3
c61 -4 65 -5 65 -28z m-292 19 c-10 -2 -26 -2 -35 0 -10 3 -2 5 17 5 19 0 27
-2 18 -5z m127 -53 c14 -23 -17 -89 -61 -130 -46 -42 -47 -42 -110 -38 -83 5
-116 33 -112 92 2 33 9 44 37 63 30 20 46 23 137 23 57 0 106 -4 109 -10z m57
-35 c0 -5 -5 -11 -11 -13 -6 -2 -11 4 -11 13 0 9 5 15 11 13 6 -2 11 -8 11
-13z m18 -80 c0 -8 -9 -15 -20 -15 -11 0 -20 7 -20 15 0 8 9 15 20 15 11 0 20
-7 20 -15z m30 0 c0 -8 -4 -15 -10 -15 -5 0 -10 7 -10 15 0 8 5 15 10 15 6 0
10 -7 10 -15z m70 0 c0 -10 -10 -15 -30 -15 -20 0 -30 5 -30 15 0 10 10 15 30
15 20 0 30 -5 30 -15z m-52 -97 c3 -27 1 -28 -37 -28 -37 0 -41 2 -41 26 0 14
4 23 9 19 5 -3 13 0 16 5 4 6 17 10 28 8 16 -2 23 -11 25 -30z m-474 6 c9 -22
-3 -32 -14 -14 -12 19 -12 30 -1 30 5 0 12 -7 15 -16z m226 6 c0 -5 -4 -10
-10 -10 -5 0 -10 5 -10 10 0 6 5 10 10 10 6 0 10 -4 10 -10z m23 -31 c-7 -7
-21 -7 -44 -1 l-34 10 45 1 c31 1 41 -2 33 -10z"/>
<path d="M7473 4693 c9 -2 23 -2 30 0 6 3 -1 5 -18 5 -16 0 -22 -2 -12 -5z"/>
<path d="M8434 5335 c-4 -14 -4 -28 -1 -31 7 -8 42 16 56 37 9 16 8 19 -9 19
-14 0 -20 -7 -20 -21 0 -11 -4 -18 -10 -14 -5 3 -7 12 -3 20 3 8 2 15 -1 15
-3 0 -8 -11 -12 -25z"/>
<path d="M1920 5316 c0 -8 4 -17 9 -20 5 -4 7 3 4 14 -6 23 -13 26 -13 6z"/>
<path d="M2386 5315 c10 -8 23 -15 28 -15 6 0 1 7 -10 15 -10 8 -23 15 -28 15
-6 0 -1 -7 10 -15z"/>
<path d="M2466 5315 c-3 -8 -1 -15 4 -15 6 0 10 7 10 15 0 8 -2 15 -4 15 -2 0
-6 -7 -10 -15z"/>
<path d="M2526 5315 c4 -8 8 -15 10 -15 2 0 4 7 4 15 0 8 -4 15 -10 15 -5 0
-7 -7 -4 -15z"/>
<path d="M4094 5285 c6 -28 5 -29 -9 -11 -12 16 -15 17 -15 4 0 -20 26 -30 38
-15 7 8 5 18 -5 32 -15 19 -15 19 -9 -10z"/>
<path d="M2310 5291 c0 -5 -10 -12 -22 -14 -20 -4 -19 -4 5 -6 18 -1 27 4 27
14 0 8 -2 15 -5 15 -3 0 -5 -4 -5 -9z"/>
<path d="M3590 5261 c0 -6 5 -13 10 -16 6 -3 10 1 10 9 0 9 -4 16 -10 16 -5 0
-10 -4 -10 -9z"/>
<path d="M3222 5243 c9 -2 19 -14 21 -26 4 -18 5 -17 6 6 1 22 -3 27 -21 26
-16 -1 -18 -3 -6 -6z"/>
<path d="M5015 5240 c4 -6 11 -8 16 -5 14 9 11 15 -7 15 -8 0 -12 -5 -9 -10z"/>
<path d="M2276 5193 c7 -4 14 -17 17 -28 5 -16 5 -15 4 4 -1 14 -9 26 -17 28
-10 3 -11 2 -4 -4z"/>
<path d="M5028 5193 c7 -3 16 -2 19 1 4 3 -2 6 -13 5 -11 0 -14 -3 -6 -6z"/>
<path d="M3602 5140 c0 -14 2 -19 5 -12 2 6 2 18 0 25 -3 6 -5 1 -5 -13z"/>
<path d="M1940 5085 l0 -55 34 0 34 0 1 55 0 55 -34 0 -35 0 0 -55z"/>
<path d="M3919 5113 l-24 -28 28 24 c25 23 32 31 24 31 -2 0 -14 -12 -28 -27z"/>
<path d="M4526 5115 c4 -8 8 -15 10 -15 2 0 4 7 4 15 0 8 -4 15 -10 15 -5 0
-7 -7 -4 -15z"/>
<path d="M5150 5115 c0 -8 5 -15 10 -15 6 0 10 7 10 15 0 8 -4 15 -10 15 -5 0
-10 -7 -10 -15z"/>
<path d="M3303 5113 c9 -2 23 -2 30 0 6 3 -1 5 -18 5 -16 0 -22 -2 -12 -5z"/>
<path d="M4486 5111 c-3 -5 -3 -16 0 -24 3 -10 -1 -17 -13 -20 -17 -4 -17 -5
1 -6 10 0 16 -7 14 -13 -5 -14 27 -50 36 -40 3 3 6 -2 6 -11 0 -9 5 -17 10
-17 6 0 10 7 10 15 0 8 9 15 19 15 14 0 18 5 14 20 -3 11 0 20 6 20 6 0 11 5
11 11 0 5 -5 7 -11 3 -8 -4 -9 1 -4 16 6 19 4 22 -10 16 -13 -4 -16 -2 -11 9
3 8 1 15 -4 15 -14 0 -12 -16 2 -40 16 -24 0 -55 -27 -55 -27 0 -43 31 -28 54
10 15 9 22 -2 31 -8 7 -15 7 -19 1z"/>
<path d="M3308 5073 c6 -2 18 -2 25 0 6 3 1 5 -13 5 -14 0 -19 -2 -12 -5z"/>
<path d="M6443 5050 c-1 -11 2 -20 7 -20 10 0 20 26 13 34 -12 11 -19 6 -20
-14z"/>
<path d="M3295 5029 c7 -11 35 -12 35 -1 0 4 -9 8 -20 9 -11 1 -18 -2 -15 -8z"/>
<path d="M4023 5029 c-17 -17 -4 -39 24 -39 20 0 24 4 21 22 -3 26 -28 34 -45
17z m37 -19 c0 -5 -7 -10 -15 -10 -8 0 -15 5 -15 10 0 6 7 10 15 10 8 0 15 -4
15 -10z"/>
<path d="M2472 5001 c-11 -7 -10 -10 3 -15 23 -8 27 -8 21 3 -4 5 0 12 6 14 9
4 8 6 -2 6 -8 0 -21 -3 -28 -8z"/>
<path d="M3298 4993 c6 -2 18 -2 25 0 6 3 1 5 -13 5 -14 0 -19 -2 -12 -5z"/>
<path d="M3772 4965 c0 -16 2 -22 5 -12 2 9 2 23 0 30 -3 6 -5 -1 -5 -18z"/>
<path d="M8198 4983 c7 -3 16 -2 19 1 4 3 -2 6 -13 5 -11 0 -14 -3 -6 -6z"/>
<path d="M2260 4950 c-9 -6 -10 -10 -3 -10 6 0 15 5 18 10 8 12 4 12 -15 0z"/>
<path d="M4027 4953 c-4 -3 -7 -15 -7 -25 0 -13 7 -18 25 -18 20 0 25 5 25 25
0 18 -5 25 -18 25 -10 0 -22 -3 -25 -7z m31 -21 c2 -7 -3 -12 -12 -12 -9 0
-16 7 -16 16 0 17 22 14 28 -4z"/>
<path d="M3305 4940 c-19 -8 -19 -9 3 -9 12 -1 22 4 22 9 0 6 -1 10 -2 9 -2 0
-12 -4 -23 -9z"/>
<path d="M2473 4913 c9 -2 23 -2 30 0 6 3 -1 5 -18 5 -16 0 -22 -2 -12 -5z"/>
<path d="M2306 4903 c-12 -12 -6 -33 9 -33 8 0 15 6 15 14 0 17 -14 28 -24 19z"/>
<path d="M3298 4903 c6 -2 18 -2 25 0 6 3 1 5 -13 5 -14 0 -19 -2 -12 -5z"/>
<path d="M3160 4878 c0 -23 19 -33 33 -18 9 10 9 11 0 6 -6 -3 -16 2 -22 11
-9 16 -10 16 -11 1z"/>
<path d="M6838 4878 c6 -6 18 -8 28 -6 14 3 12 5 -9 10 -19 3 -25 2 -19 -4z"/>
<path d="M8061 4885 c0 -11 34 -55 42 -55 3 0 3 9 0 20 -3 11 -9 17 -14 15 -4
-3 -12 3 -18 12 -6 10 -10 14 -10 8z"/>
<path d="M3118 4873 c7 -3 16 -2 19 1 4 3 -2 6 -13 5 -11 0 -14 -3 -6 -6z"/>
<path d="M3305 4870 c-19 -8 -19 -9 3 -9 12 -1 22 4 22 9 0 6 -1 10 -2 9 -2 0
-12 -4 -23 -9z"/>
<path d="M4034 4865 c-15 -10 -16 -16 -7 -26 14 -15 43 -5 43 15 0 22 -15 27
-36 11z m26 -15 c0 -5 -4 -10 -10 -10 -5 0 -10 5 -10 10 0 6 5 10 10 10 6 0
10 -4 10 -10z"/>
<path d="M4300 4869 c0 -5 5 -7 10 -4 6 3 10 8 10 11 0 2 -4 4 -10 4 -5 0 -10
-5 -10 -11z"/>
<path d="M2860 4862 c0 -5 7 -9 15 -9 8 0 12 4 9 9 -3 4 -9 8 -15 8 -5 0 -9
-4 -9 -8z"/>
<path d="M3870 4859 c0 -5 5 -7 10 -4 6 3 10 8 10 11 0 2 -4 4 -10 4 -5 0 -10
-5 -10 -11z"/>
<path d="M3958 4863 c7 -3 16 -2 19 1 4 3 -2 6 -13 5 -11 0 -14 -3 -6 -6z"/>
<path d="M8223 4858 c2 -7 13 -12 25 -11 11 1 23 -4 26 -12 3 -8 1 -15 -3 -15
-5 0 -12 6 -14 13 -3 7 -6 5 -6 -5 -1 -13 7 -18 23 -18 23 0 24 2 15 28 -7 21
-17 28 -40 30 -21 2 -29 -1 -26 -10z"/>
<path d="M8290 4863 c0 -9 31 -63 36 -63 3 0 4 8 2 18 -1 9 1 23 6 31 6 10 5
12 -2 7 -7 -4 -12 -3 -12 2 0 5 -7 9 -15 9 -8 0 -15 -2 -15 -4z"/>
<path d="M6843 4853 c9 -2 23 -2 30 0 6 3 -1 5 -18 5 -16 0 -22 -2 -12 -5z"/>
<path d="M2770 4840 c0 -5 5 -10 11 -10 5 0 7 5 4 10 -3 6 -8 10 -11 10 -2 0
-4 -4 -4 -10z"/>
<path d="M2805 4840 c-3 -5 -1 -10 4 -10 6 0 11 5 11 10 0 6 -2 10 -4 10 -3 0
-8 -4 -11 -10z"/>
<path d="M2878 4833 c6 -2 18 -2 25 0 6 3 1 5 -13 5 -14 0 -19 -2 -12 -5z"/>
<path d="M3298 4833 c6 -2 18 -2 25 0 6 3 1 5 -13 5 -14 0 -19 -2 -12 -5z"/>
<path d="M4338 4823 c7 -3 16 -2 19 1 4 3 -2 6 -13 5 -11 0 -14 -3 -6 -6z"/>
<path d="M8216 4817 c3 -10 9 -15 12 -12 3 3 0 11 -7 18 -10 9 -11 8 -5 -6z"/>
<path d="M3305 4800 c-3 -5 1 -10 9 -10 9 0 16 5 16 10 0 6 -4 10 -9 10 -6 0
-13 -4 -16 -10z"/>
<path d="M8250 4765 c0 -18 5 -37 12 -41 7 -5 8 -3 3 6 -5 8 -2 18 8 25 14 10
14 13 -4 28 -18 16 -19 16 -19 -18z"/>
<path d="M8156 4782 c-2 -4 -1 -14 5 -22 7 -12 9 -10 9 8 0 23 -5 28 -14 14z"/>
<path d="M8186 4773 c-6 -14 -5 -15 5 -6 7 7 10 15 7 18 -3 3 -9 -2 -12 -12z"/>
<path d="M8350 4758 c0 -21 3 -28 9 -20 4 7 13 12 18 10 6 -2 11 2 11 7 1 6
-6 9 -13 7 -10 -2 -13 3 -9 13 3 8 1 15 -5 15 -6 0 -11 -15 -11 -32z"/>
<path d="M3308 4773 c7 -3 16 -2 19 1 4 3 -2 6 -13 5 -11 0 -14 -3 -6 -6z"/>
<path d="M3290 4740 c0 -5 9 -10 20 -10 11 0 20 5 20 10 0 6 -9 10 -20 10 -11
0 -20 -4 -20 -10z"/>
<path d="M8217 4728 c-8 -32 11 -71 31 -63 7 2 56 7 110 11 74 4 94 3 82 -6
-12 -9 -12 -11 -1 -8 8 2 15 12 17 22 2 15 -3 16 -42 10 -39 -5 -44 -4 -44 12
0 12 -3 15 -8 8 -10 -16 -52 -28 -52 -15 0 15 -57 14 -63 -1 -2 -7 -9 3 -14
22 l-9 35 -7 -27z"/>
<path d="M8295 4740 c-3 -5 -1 -10 4 -10 6 0 11 5 11 10 0 6 -2 10 -4 10 -3 0
-8 -4 -11 -10z"/>
<path d="M3623 4703 c3 -32 19 -40 37 -18 11 13 11 18 0 28 -10 10 -12 9 -7
-5 3 -10 2 -20 -3 -23 -9 -5 -15 15 -11 38 0 4 -3 7 -8 7 -6 0 -9 -12 -8 -27z"/>
<path d="M8320 4709 c0 -5 5 -7 10 -4 6 3 10 8 10 11 0 2 -4 4 -10 4 -5 0 -10
-5 -10 -11z"/>
<path d="M6924 4655 c-4 -9 -4 -19 0 -22 3 -4 6 1 6 10 0 19 15 23 23 7 3 -6
4 -5 3 2 -4 19 -25 21 -32 3z"/>
<path d="M8250 4652 c1 -15 28 -42 43 -42 39 0 24 44 -15 47 -16 1 -28 -1 -28
-5z"/>
<path d="M6227 4644 c-4 -4 -7 -12 -7 -18 0 -6 5 -4 10 4 9 13 11 13 21 0 9
-12 10 -12 7 -1 -5 17 -21 25 -31 15z"/>
<path d="M7851 4624 c0 -11 3 -14 6 -6 3 7 2 16 -1 19 -3 4 -6 -2 -5 -13z"/>
<path d="M4220 4535 c-14 -16 -5 -35 16 -35 15 0 20 35 5 44 -5 3 -14 -1 -21
-9z m16 -22 c-10 -10 -19 5 -10 18 6 11 8 11 12 0 2 -7 1 -15 -2 -18z"/>
<path d="M4306 4534 c-9 -23 10 -42 26 -26 10 10 9 16 -4 28 -14 14 -16 14
-22 -2z m24 -14 c0 -5 -4 -10 -10 -10 -5 0 -10 5 -10 10 0 6 5 10 10 10 6 0
10 -4 10 -10z"/>
<path d="M4686 4526 c3 -9 2 -16 -4 -16 -6 0 -13 6 -15 13 -3 7 -6 5 -6 -5 -1
-12 6 -18 19 -18 21 0 28 24 10 35 -6 3 -7 -1 -4 -9z"/>
<path d="M4750 4520 c0 -13 6 -20 18 -19 10 0 12 3 5 6 -7 2 -13 9 -13 14 0 6
5 7 10 4 6 -3 10 -1 10 4 0 6 -7 11 -15 11 -8 0 -15 -9 -15 -20z"/>
<path d="M2157 4513 c-9 -9 -9 -41 1 -46 4 -3 7 8 7 24 0 16 0 29 -1 29 0 0
-4 -3 -7 -7z"/>
</g>
</svg>
